<svg id="Layer_1" xmlns="http://www.w3.org/2000/svg" viewBox="0 0 1200 320.4"><style>.st0{fill:#949ca1}.st1{fill:#8dc540}.st2{fill:#5a595c}</style><g id="Artwork_5_1_"><path class="st0" d="M370.6 160.2c0-30.5 23.9-54.3 54.7-54.3 17.3 0 33.4 8.4 41.3 20.6 1.9 3 2.5 5.3 2.5 7.6 0 6.9-5.6 12.6-12.4 12.6-3.9 0-7-1.3-9.5-4.4-5.2-6.3-12.4-10.5-21.5-10.5-15.7 0-26.8 11.8-26.8 28.4 0 16.8 11.1 28.6 26.8 28.6 8.9 0 15.9-4.2 21.5-10.5 2.9-3.4 5.8-4.4 9.5-4.4 6.8 0 12.4 5.7 12.4 12.6 0 2.5-.6 4.6-2.3 7.2-8.5 13.3-23.3 21.3-41.5 21.3-30.7-.1-54.7-24.3-54.7-54.8m115.8 6.3v-46.3c0-8.2 6-14.3 14-14.3 7.8 0 13.8 6.1 13.8 14.3v48.6c0 11.6 8 20 19.4 20 11.1 0 19-8.4 19-20v-48.6c0-8.2 5.8-14.3 14-14.3 7.8 0 13.8 6.1 13.8 14.3v46.3c0 28.6-19.4 48.4-46.8 48.4-27.8 0-47.2-19.8-47.2-48.4m182.5-46.7c0 7.6-5.2 12.8-13 13.7-14.9 1.1-23.9 10.9-23.9 26.9v40c0 8.4-6 14.5-13.8 14.5-8 0-14-6.3-14-14.5v-80.2c0-8.2 6-14.3 13.8-14.3 7.2 0 12.8 5.5 13.4 12.8 6.4-7.4 15.3-11.8 25-11.8 7.4 0 12.5 5.1 12.5 12.9m77.2 0c0 7.6-5.2 12.8-13 13.7-14.9 1.1-23.9 10.9-23.9 26.9v40c0 8.4-6 14.5-13.8 14.5-8 0-14-6.3-14-14.5v-80.2c0-8.2 6-14.3 13.8-14.3 7.2 0 12.8 5.5 13.4 12.8 6.4-7.4 15.3-11.8 25-11.8 7.3 0 12.5 5.1 12.5 12.9m106 34.9v.6c0 8.8-6.2 14.5-15.3 14.5h-58.2c3.3 13.1 13.6 20.6 28.7 20.6 7.4 0 15.1-2.1 21.3-6.1 2.1-1.3 3.9-1.9 6-1.9 6.4 0 11.3 4.8 11.3 11.4 0 4.6-2.1 8-7 11.4-9.3 6.3-20.4 9.7-32.4 9.7-32.2 0-55.9-23.4-55.9-54.5 0-30.9 22.9-54.5 53-54.5 27.9 0 48.5 20.6 48.5 48.8m-73.4-4.8h46.4c-.4-12.4-9.1-21.1-22.1-21.1-12.1 0-21.2 8.2-24.3 21.1m186.1-2.2v52.6c0 8.4-5.8 14.5-13.8 14.5-7.8 0-13.8-6.3-13.8-14.5v-48.8c0-12-7.6-20.2-19-20.2-11.3 0-19.4 8.4-19.4 20.2v48.8c0 8.4-6 14.5-13.8 14.5-8 0-14-6.3-14-14.5v-80.2c0-8.2 6-14.3 13.8-14.3 6.4 0 11.6 4.4 13 10.7 7.2-6.7 17.3-10.7 28.7-10.7 23.2.1 38.3 16.5 38.3 41.9m18.1 12.5c0-30.5 23.9-54.3 54.7-54.3 17.3 0 33.4 8.4 41.3 20.6 1.9 3 2.5 5.3 2.5 7.6 0 6.9-5.6 12.6-12.4 12.6-3.9 0-7-1.3-9.5-4.4-5.2-6.3-12.4-10.5-21.5-10.5-15.7 0-26.8 11.8-26.8 28.4 0 16.8 11.1 28.6 26.8 28.6 8.9 0 15.9-4.2 21.5-10.5 2.9-3.4 5.8-4.4 9.5-4.4 6.8 0 12.4 5.7 12.4 12.6 0 2.5-.6 4.6-2.3 7.2-8.5 13.3-23.3 21.3-41.5 21.3-30.8-.1-54.7-24.3-54.7-54.8m198.4-54.9c-4.2 0-8.2 2-10.8 5.3-3.2 4.1-2.9 8.9-2.9 13.9v38.1c0 4.4 0 8.9-1.3 13.1-5.1 16.6-31.3 17.7-37.7 1.5-1.7-4.3-1.7-9.2-1.7-13.8v-38.3c0-4.9.5-9.8-2.6-14.1-2.6-3.6-6.7-5.7-11.1-5.7-7.6 0-13.7 6.1-13.7 13.7v48.8c0 16.1 6.2 31.8 20.3 40.6 14.2 8.9 34.8 8.9 47.8-2.4-.6.5.1 5.3.1 6.2 0 2.4 0 4.9-.2 7.3-.4 4.5-1.5 9.3-4.3 12.9-4.8 6.1-13.2 7.5-20.5 6.1-8-1.6-14.7-10-23.1-6-4.5 2.1-7.5 7-7.4 11.9.1 5.5 4.1 9.6 8.5 12.4 8 5.1 17.5 7.7 26.9 7.7 7.2 0 13.7-1.1 19.5-3.4 5.8-2.3 10.8-5.5 14.9-9.8 4.2-4.2 7.4-9.3 9.7-15.2 2.3-5.9 3.4-12.4 3.4-19.6V119c-.1-7.5-6.2-13.7-13.8-13.7"/><path class="st1" d="M101.1 18.3c10 6.3 13 19.6 6.7 29.6s-19.6 13-29.6 6.7S65.2 35 71.5 25s19.6-13 29.6-6.7M322 141.4c10 6.3 13 19.6 6.7 29.6s-19.6 13-29.6 6.7-13-19.6-6.7-29.6 19.6-13 29.6-6.7"/><path class="st2" d="M121.1 21.4c2.3 4.6 7.4 7 12.4 5.8 56.5-12.9 117.3 11.4 148.1 64 4.9 8.3 8.7 16.9 11.6 25.6 1.7 5.1 6.7 8.2 12 7.4l.5-.1c7.1-1.1 11.2-7.5 9-14.3-3.4-10.3-8-20.4-13.7-30.1C265 18.5 194.1-9.8 128.2 5.3c-7 1.6-10.5 9.4-7.3 15.8.1.1.1.2.2.3m-56.9 245c3.1-4.3 2.6-10.1-1-14-6.4-7-12.1-14.7-17.1-23.1C15.9 177.5 23.6 114 60.6 71c3.3-3.8 3.3-9.3.3-13.4-.1-.2-.3-.4-.4-.6-4-5.6-12.1-6.2-16.6-1C.5 106.1-8.5 180.3 26.8 240.5c5.8 9.9 12.6 19 20 27.1 4.8 5.2 13.2 4.7 17.3-1.1l.1-.1m241.2-71.5c-5.3-.8-10.3 2.4-11.9 7.5-10 30.7-30.7 57.9-60.6 75.5-30.1 17.7-64.3 22.4-96.1 15.9-5.1-1-10.3 1.5-12.4 6.3 0 .1-.1.2-.1.3-2.9 6.5 1 14.1 8 15.5 37.1 7.6 76.9 2.1 112.1-18.5 34.7-20.4 58.9-52 70.5-87.5 2.2-6.7-2.1-13.8-9.1-14.8l-.4-.2z"/><path class="st1" d="M103 269.7c10 6.3 13 19.6 6.7 29.6s-19.6 13-29.6 6.7-13-19.6-6.7-29.6c6.4-10 19.6-13 29.6-6.7"/><path class="st2" d="M144.5 118.6c0 7.6-5.2 12.8-13 13.7-14.9 1.1-23.9 10.9-23.9 26.9v40c0 8.4-6 14.5-13.8 14.5-8 0-14-6.3-14-14.5V119c0-8.2 6-14.3 13.8-14.3 7.2 0 12.8 5.5 13.4 12.8 6.4-7.4 15.3-11.8 25-11.8 7.3.1 12.5 5.1 12.5 12.9m106 35v.6c0 8.8-6.2 14.5-15.3 14.5H177c3.3 13 13.6 20.6 28.7 20.6 7.4 0 15.1-2.1 21.3-6.1 2.1-1.3 3.9-1.9 6-1.9 6.4 0 11.3 4.8 11.3 11.4 0 4.6-2.1 8-7 11.4-9.3 6.3-20.4 9.7-32.4 9.7-32.2 0-55.9-23.4-55.9-54.5 0-30.9 22.9-54.5 53-54.5 27.9-.1 48.5 20.5 48.5 48.8m-73.4-4.9h46.4c-.4-12.4-9.1-21.1-22.1-21.1-12.2.1-21.3 8.3-24.3 21.1"/></g></svg>