<?xml version="1.0" encoding="utf-8"?>
<!-- Generator: Adobe Illustrator 22.0.1, SVG Export Plug-In . SVG Version: 6.00 Build 0)  -->
<svg version="1.1" id="Layer_1" xmlns="http://www.w3.org/2000/svg" xmlns:xlink="http://www.w3.org/1999/xlink" x="0px" y="0px"
	 viewBox="0 0 1200 320.4" style="enable-background:new 0 0 1200 320.4;" xml:space="preserve">
<style type="text/css">
	.st0{fill:#949CA1;}
	.st1{fill:#8DC540;}
	.st2{fill:#5A595C;}
</style>
<g id="Artwork_5_1_">
	<g>
		<g>
			<path class="st0" d="M370.6,160.2c0-30.5,23.9-54.3,54.7-54.3c17.3,0,33.4,8.4,41.3,20.6c1.9,3,2.5,5.3,2.5,7.6
				c0,6.9-5.6,12.6-12.4,12.6c-3.9,0-7-1.3-9.5-4.4c-5.2-6.3-12.4-10.5-21.5-10.5c-15.7,0-26.8,11.8-26.8,28.4
				c0,16.8,11.1,28.6,26.8,28.6c8.9,0,15.9-4.2,21.5-10.5c2.9-3.4,5.8-4.4,9.5-4.4c6.8,0,12.4,5.7,12.4,12.6c0,2.5-0.6,4.6-2.3,7.2
				c-8.5,13.3-23.3,21.3-41.5,21.3C394.6,214.9,370.6,190.7,370.6,160.2"/>
			<path class="st0" d="M486.4,166.5v-46.3c0-8.2,6-14.3,14-14.3c7.8,0,13.8,6.1,13.8,14.3v48.6c0,11.6,8,20,19.4,20
				c11.1,0,19-8.4,19-20v-48.6c0-8.2,5.8-14.3,14-14.3c7.8,0,13.8,6.1,13.8,14.3v46.3c0,28.6-19.4,48.4-46.8,48.4
				C505.8,214.9,486.4,195.1,486.4,166.5"/>
			<path class="st0" d="M668.9,119.8c0,7.6-5.2,12.8-13,13.7c-14.9,1.1-23.9,10.9-23.9,26.9v40c0,8.4-6,14.5-13.8,14.5
				c-8,0-14-6.3-14-14.5v-80.2c0-8.2,6-14.3,13.8-14.3c7.2,0,12.8,5.5,13.4,12.8c6.4-7.4,15.3-11.8,25-11.8
				C663.8,106.9,668.9,112,668.9,119.8"/>
			<path class="st0" d="M746.1,119.8c0,7.6-5.2,12.8-13,13.7c-14.9,1.1-23.9,10.9-23.9,26.9v40c0,8.4-6,14.5-13.8,14.5
				c-8,0-14-6.3-14-14.5v-80.2c0-8.2,6-14.3,13.8-14.3c7.2,0,12.8,5.5,13.4,12.8c6.4-7.4,15.3-11.8,25-11.8
				C740.9,106.9,746.1,112,746.1,119.8"/>
			<path class="st0" d="M852.1,154.7v0.6c0,8.8-6.2,14.5-15.3,14.5h-58.2c3.3,13.1,13.6,20.6,28.7,20.6c7.4,0,15.1-2.1,21.3-6.1
				c2.1-1.3,3.9-1.9,6-1.9c6.4,0,11.3,4.8,11.3,11.4c0,4.6-2.1,8-7,11.4c-9.3,6.3-20.4,9.7-32.4,9.7c-32.2,0-55.9-23.4-55.9-54.5
				c0-30.9,22.9-54.5,53-54.5C831.5,105.9,852.1,126.5,852.1,154.7 M778.7,149.9h46.4c-0.4-12.4-9.1-21.1-22.1-21.1
				C790.9,128.8,781.8,137,778.7,149.9"/>
			<path class="st0" d="M964.8,147.7v52.6c0,8.4-5.8,14.5-13.8,14.5c-7.8,0-13.8-6.3-13.8-14.5v-48.8c0-12-7.6-20.2-19-20.2
				c-11.3,0-19.4,8.4-19.4,20.2v48.8c0,8.4-6,14.5-13.8,14.5c-8,0-14-6.3-14-14.5v-80.2c0-8.2,6-14.3,13.8-14.3
				c6.4,0,11.6,4.4,13,10.7c7.2-6.7,17.3-10.7,28.7-10.7C949.7,105.9,964.8,122.3,964.8,147.7"/>
			<path class="st0" d="M982.9,160.2c0-30.5,23.9-54.3,54.7-54.3c17.3,0,33.4,8.4,41.3,20.6c1.9,3,2.5,5.3,2.5,7.6
				c0,6.9-5.6,12.6-12.4,12.6c-3.9,0-7-1.3-9.5-4.4c-5.2-6.3-12.4-10.5-21.5-10.5c-15.7,0-26.8,11.8-26.8,28.4
				c0,16.8,11.1,28.6,26.8,28.6c8.9,0,15.9-4.2,21.5-10.5c2.9-3.4,5.8-4.4,9.5-4.4c6.8,0,12.4,5.7,12.4,12.6c0,2.5-0.6,4.6-2.3,7.2
				c-8.5,13.3-23.3,21.3-41.5,21.3C1006.8,214.9,982.9,190.7,982.9,160.2"/>
			<path class="st0" d="M1181.3,105.3c-4.2,0-8.2,2-10.8,5.3c-3.2,4.1-2.9,8.9-2.9,13.9l0,38.1c0,4.4,0,8.9-1.3,13.1
				c-5.1,16.6-31.3,17.7-37.7,1.5c-1.7-4.3-1.7-9.2-1.7-13.8l0-38.3c0-4.9,0.5-9.8-2.6-14.1c-2.6-3.6-6.7-5.7-11.1-5.7
				c-7.6,0-13.7,6.1-13.7,13.7v48.8c0,16.1,6.2,31.8,20.3,40.6c14.2,8.9,34.8,8.9,47.8-2.4c-0.6,0.5,0.1,5.3,0.1,6.2
				c0,2.4,0,4.9-0.2,7.3c-0.4,4.5-1.5,9.3-4.3,12.9c-4.8,6.1-13.2,7.5-20.5,6.1c-8-1.6-14.7-10-23.1-6c-4.5,2.1-7.5,7-7.4,11.9
				c0.1,5.5,4.1,9.6,8.5,12.4c8,5.1,17.5,7.7,26.9,7.7c7.2,0,13.7-1.1,19.5-3.4c5.8-2.3,10.8-5.5,14.9-9.8c4.2-4.2,7.4-9.3,9.7-15.2
				c2.3-5.9,3.4-12.4,3.4-19.6V119C1195,111.5,1188.9,105.3,1181.3,105.3"/>
			<path class="st1" d="M101.1,18.3c10,6.3,13,19.6,6.7,29.6c-6.3,10-19.6,13-29.6,6.7c-10-6.3-13-19.6-6.7-29.6
				C77.8,15,91.1,12,101.1,18.3"/>
			<path class="st1" d="M322,141.4c10,6.3,13,19.6,6.7,29.6c-6.3,10-19.6,13-29.6,6.7c-10-6.3-13-19.6-6.7-29.6
				C298.7,138.1,312,135.1,322,141.4"/>
			<path class="st2" d="M121.1,21.4c2.3,4.6,7.4,7,12.4,5.8c56.5-12.9,117.3,11.4,148.1,64c4.9,8.3,8.7,16.9,11.6,25.6
				c1.7,5.1,6.7,8.2,12,7.4l0.5-0.1c7.1-1.1,11.2-7.5,9-14.3c-3.4-10.3-8-20.4-13.7-30.1C265,18.5,194.1-9.8,128.2,5.3
				c-7,1.6-10.5,9.4-7.3,15.8C121,21.2,121,21.3,121.1,21.4"/>
			<path class="st2" d="M64.2,266.4c3.1-4.3,2.6-10.1-1-14c-6.4-7-12.1-14.7-17.1-23.1C15.9,177.5,23.6,114,60.6,71
				c3.3-3.8,3.3-9.3,0.3-13.4c-0.1-0.2-0.3-0.4-0.4-0.6c-4-5.6-12.1-6.2-16.6-1C0.5,106.1-8.5,180.3,26.8,240.5
				c5.8,9.9,12.6,19,20,27.1c4.8,5.2,13.2,4.7,17.3-1.1C64.1,266.5,64.2,266.4,64.2,266.4"/>
			<path class="st2" d="M305.4,194.9c-5.3-0.8-10.3,2.4-11.9,7.5c-10,30.7-30.7,57.9-60.6,75.5c-30.1,17.7-64.3,22.4-96.1,15.9
				c-5.1-1-10.3,1.5-12.4,6.3c0,0.1-0.1,0.2-0.1,0.3c-2.9,6.5,1,14.1,8,15.5c37.1,7.6,76.9,2.1,112.1-18.5
				c34.7-20.4,58.9-52,70.5-87.5c2.2-6.7-2.1-13.8-9.1-14.8L305.4,194.9z"/>
			<path class="st1" d="M103,269.7c10,6.3,13,19.6,6.7,29.6c-6.3,10-19.6,13-29.6,6.7c-10-6.3-13-19.6-6.7-29.6
				C79.8,266.4,93,263.4,103,269.7"/>
			<path class="st2" d="M144.5,118.6c0,7.6-5.2,12.8-13,13.7c-14.9,1.1-23.9,10.9-23.9,26.9v40c0,8.4-6,14.5-13.8,14.5
				c-8,0-14-6.3-14-14.5V119c0-8.2,6-14.3,13.8-14.3c7.2,0,12.8,5.5,13.4,12.8c6.4-7.4,15.3-11.8,25-11.8
				C139.3,105.8,144.5,110.8,144.5,118.6"/>
			<path class="st2" d="M250.5,153.6v0.6c0,8.8-6.2,14.5-15.3,14.5h-58.2c3.3,13,13.6,20.6,28.7,20.6c7.4,0,15.1-2.1,21.3-6.1
				c2.1-1.3,3.9-1.9,6-1.9c6.4,0,11.3,4.8,11.3,11.4c0,4.6-2.1,8-7,11.4c-9.3,6.3-20.4,9.7-32.4,9.7c-32.2,0-55.9-23.4-55.9-54.5
				c0-30.9,22.9-54.5,53-54.5C229.9,104.7,250.5,125.3,250.5,153.6 M177.1,148.7h46.4c-0.4-12.4-9.1-21.1-22.1-21.1
				C189.2,127.7,180.1,135.9,177.1,148.7"/>
		</g>
	</g>
</g>
</svg>
